# xmcd CD database file
#
# Track frame offsets:
#	150
#	11476
#	24451
#	35901
#	47390
#	60915
#	74316
#	87780
#	101975
#	114835
#	127991
#	140839
#	153510
#	167727
#	179173
#	192083
#	205788
#	220188
#	231917
#	245041
#	258178
#
# Disc length: 3637 seconds
#
# Revision: 0
# Processed by: cddbd v1.5.2PL0 Copyright (c) Steve Scherf et al.
# Submitted via: CDex 1.70beta2
#
DISCID=270e3315
DTITLE=Dizzy Gillespie - Bebop Story Vol. 1 1945 CD 016
DYEAR=2008
DGENRE=Jazz
TTITLE0=Something For You
TTITLE1=Worried Life Blues
TTITLE2=Empty Bed Blues Part 1
TTITLE3=Empty Bed Blues Part 2
TTITLE4=I Can't Get Started
TTITLE5=Good Bait
TTITLE6=Salt Peanuts
TTITLE7=Be-Bop
TTITLE8=Perdido
TTITLE9=My Melancholy Baby
TTITLE10=On The Alamo
TTITLE11=Cherokee
TTITLE12=A Night In Tunesia
TTITLE13=March Of The Boyds
TTITLE14=Georgie Porgie
TTITLE15=Sweetheart Of My Dreams
TTITLE16=In The Middle
TTITLE17=Groovin' High
TTITLE18=Blue 'n' Boogie
TTITLE19=I'll Never be The Same
TTITLE20=A Night In Tunesia
EXTD=YEAR: 2008
EXTT0=
EXTT1=
EXTT2=
EXTT3=
EXTT4=
EXTT5=
EXTT6=
EXTT7=
EXTT8=
EXTT9=
EXTT10=
EXTT11=
EXTT12=
EXTT13=
EXTT14=
EXTT15=
EXTT16=
EXTT17=
EXTT18=
EXTT19=
EXTT20=
PLAYORDER=
